<?xml version="1.0" standalone="no"?>
<!DOCTYPE svg PUBLIC "-//W3C//DTD SVG 20010904//EN"
 "http://www.w3.org/TR/2001/REC-SVG-20010904/DTD/svg10.dtd">
<svg version="1.0" xmlns="http://www.w3.org/2000/svg"
 width="254.000000pt" height="254.000000pt" viewBox="0 0 254.000000 254.000000"
 preserveAspectRatio="xMidYMid meet">
<metadata>
Created by potrace 1.14, written by Peter Selinger 2001-2017
</metadata>
<g transform="translate(0.000000,254.000000) scale(0.100000,-0.100000)"
fill="#000000" stroke="none">
<path d="M590 1938 c0 -5 -8 -8 -18 -8 -23 0 -99 -75 -123 -121 -10 -21 -30
-48 -43 -61 -13 -13 -49 -65 -81 -116 -31 -51 -73 -114 -93 -140 l-37 -47 0
-168 c0 -168 0 -169 25 -189 18 -15 34 -18 58 -14 48 7 61 22 68 76 3 26 9 51
13 56 18 26 114 103 122 98 5 -3 9 -1 9 5 0 13 67 34 91 28 10 -3 19 -1 19 4
0 25 195 -2 217 -31 7 -8 13 -11 13 -7 0 10 22 -7 72 -56 23 -23 58 -79 88
-143 l50 -104 222 2 221 3 12 45 c33 122 106 214 205 258 50 22 65 24 165 20
78 -3 119 -9 140 -20 45 -25 159 -137 191 -188 54 -86 100 -121 119 -90 12 19
47 266 45 323 -1 81 -24 133 -71 163 -38 23 -43 24 -253 24 l-214 0 -33 38
c-144 165 -285 312 -325 340 -31 21 -40 22 -453 24 -231 2 -421 0 -421 -4z
m850 -236 c85 -90 93 -100 109 -129 6 -12 18 -29 27 -37 14 -15 -17 -16 -346
-16 -348 0 -362 1 -367 19 -3 11 -14 22 -26 25 -12 3 -18 8 -14 12 4 4 -18 26
-48 49 -30 23 -51 45 -48 49 4 3 1 6 -6 6 -12 0 -43 29 -83 75 -16 20 -14 20
355 24 l372 3 75 -80z"/>
<path d="M576 1179 c-130 -31 -190 -190 -124 -331 24 -51 32 -59 89 -87 81
-39 141 -41 216 -6 44 21 57 34 79 77 48 95 43 188 -15 284 -21 36 -35 47 -75
59 -55 17 -110 18 -170 4z"/>
<path d="M1764 1173 c-106 -61 -147 -142 -130 -256 10 -63 49 -116 114 -157
46 -28 66 -35 104 -33 83 2 198 72 198 120 0 8 3 12 8 10 8 -5 10 9 13 93 4
95 -20 144 -101 212 -21 18 -35 21 -110 25 -49 2 -73 -1 -96 -14z"/>
</g>
</svg>
